<svg xmlns="http://www.w3.org/2000/svg" id="Group_2" width="25.732" height="22" data-name="Group 2" viewBox="0 0 25.732 22">
    <path id="Path_1" fill="#5b5b5b" d="M27.871 35.681H14.677a1.651 1.651 0 0 1-1.65-1.649V23.457a1.813 1.813 0 0 1-2.129-.318l-1.922-1.922a1.939 1.939 0 0 1 0-2.742l4.284-4.285a2.169 2.169 0 0 1 1.67-.5 2.032 2.032 0 0 1 1.506.694l.222.3c1.113 1.492 2.635 3.533 4.58 3.533h.074c1.945 0 3.467-2.041 4.58-3.534l.221-.3a2.033 2.033 0 0 1 1.506-.694 2.167 2.167 0 0 1 1.67.5l4.284 4.284a1.939 1.939 0 0 1 0 2.743l-1.923 1.923a1.813 1.813 0 0 1-2.13.318v10.574a1.651 1.651 0 0 1-1.649 1.65zM13.278 22.056a.906.906 0 0 1 .906.906v11.07a.494.494 0 0 0 .493.493h13.194a.493.493 0 0 0 .493-.493v-11.07a.905.905 0 0 1 1.546-.64.653.653 0 0 0 .923 0l1.922-1.922a.782.782 0 0 0 0-1.107l-4.285-4.285a1.139 1.139 0 0 0-.771-.166 1.012 1.012 0 0 0-.663.236l-.218.291c-1.189 1.594-2.982 4-5.507 4h-.075c-2.525 0-4.318-2.4-5.506-4l-.218-.292a1.014 1.014 0 0 0-.663-.236 1.143 1.143 0 0 0-.771.166l-4.284 4.285a.782.782 0 0 0 0 1.107l1.922 1.923a.654.654 0 0 0 .923 0 .9.9 0 0 1 .639-.266z" data-name="Path 1" transform="translate(-8.408 -13.681)"/>
</svg>
