<svg width="50" height="24" viewBox="0 0 50 24" fill="none" xmlns="http://www.w3.org/2000/svg">
<path d="M16.3033 4.30325C16.5247 4.07402 16.7895 3.89119 17.0823 3.7654C17.3751 3.63962 17.6901 3.57342 18.0087 3.57065C18.3274 3.56788 18.6434 3.6286 18.9384 3.74928C19.2333 3.86995 19.5013 4.04816 19.7266 4.2735C19.952 4.49884 20.1302 4.76681 20.2509 5.06176C20.3715 5.35671 20.4323 5.67274 20.4295 5.99141C20.4267 6.31008 20.3605 6.62501 20.2347 6.91782C20.109 7.21063 19.9261 7.47546 19.6969 7.69685L18.7453 8.64845L15.3517 5.25485L16.3033 4.30325ZM13.6549 6.95165L3.6001 17.0064V20.4H6.9937L17.0497 10.3452L13.6537 6.95165H13.6549Z" fill="#F40000"/>
<path d="M29.991 18.104C29.2803 18.104 28.6693 17.961 28.158 17.675C27.6553 17.3803 27.274 17.0033 27.014 16.544C26.7627 16.0847 26.637 15.6037 26.637 15.101V15.036H28.119V15.101C28.119 15.3783 28.184 15.6557 28.314 15.933C28.444 16.2017 28.652 16.4313 28.938 16.622C29.224 16.804 29.5837 16.895 30.017 16.895C30.5457 16.895 30.9747 16.7607 31.304 16.492C31.642 16.2233 31.811 15.8593 31.811 15.4C31.811 15.0187 31.681 14.7153 31.421 14.49C31.1697 14.2647 30.849 14.113 30.459 14.035L29.211 13.788C28.665 13.6753 28.1363 13.4457 27.625 13.099C27.1223 12.7437 26.871 12.1543 26.871 11.331C26.871 10.8023 26.9967 10.3387 27.248 9.94C27.508 9.54133 27.8677 9.238 28.327 9.03C28.7863 8.81333 29.3107 8.705 29.9 8.705C30.576 8.705 31.1567 8.83933 31.642 9.108C32.1273 9.37667 32.4913 9.72767 32.734 10.161C32.9853 10.5857 33.111 11.032 33.111 11.5V11.552H31.629V11.513C31.629 11.279 31.5727 11.0363 31.46 10.785C31.3473 10.5337 31.1567 10.3213 30.888 10.148C30.628 9.966 30.2857 9.875 29.861 9.875C29.3583 9.875 28.9597 10.0137 28.665 10.291C28.379 10.5597 28.236 10.8977 28.236 11.305C28.236 11.6603 28.3573 11.9507 28.6 12.176C28.8513 12.4013 29.1763 12.553 29.575 12.631L30.732 12.865C31.3993 13.0037 31.98 13.2593 32.474 13.632C32.9767 14.0047 33.228 14.581 33.228 15.361C33.228 15.8983 33.0893 16.375 32.812 16.791C32.5433 17.207 32.162 17.532 31.668 17.766C31.1827 17.9913 30.6237 18.104 29.991 18.104ZM42.2186 9.888V10.434C42.2186 10.9367 42.0756 11.292 41.7896 11.5C41.5036 11.708 41.1613 11.812 40.7626 11.812V18H39.4106V16.765H39.3196C39.1463 17.1463 38.8776 17.467 38.5136 17.727C38.1496 17.987 37.7076 18.117 37.1876 18.117C36.5983 18.117 36.1173 17.9783 35.7446 17.701C35.3806 17.415 35.1163 17.0553 34.9516 16.622C34.787 16.18 34.7046 15.7163 34.7046 15.231V11.149H36.0436V15.036C36.0436 15.6427 36.1953 16.115 36.4986 16.453C36.802 16.791 37.205 16.96 37.7076 16.96C38.2363 16.96 38.6523 16.7823 38.9556 16.427C39.259 16.063 39.4106 15.5993 39.4106 15.036V11.149H40.4636C40.7236 11.149 40.91 11.097 41.0226 10.993C41.144 10.8803 41.2046 10.6463 41.2046 10.291V9.888H42.2186ZM37.0186 10.2C37.0446 10.1133 37.0966 10.0353 37.1746 9.966C37.2526 9.89667 37.3566 9.81867 37.4866 9.732C37.6773 9.59333 37.8246 9.46767 37.9286 9.355C38.0326 9.23367 38.0846 9.095 38.0846 8.939C38.0846 8.809 38.0413 8.70067 37.9546 8.614C37.8766 8.52733 37.751 8.484 37.5776 8.484C37.4216 8.484 37.3003 8.523 37.2136 8.601C37.127 8.67033 37.075 8.76567 37.0576 8.887H36.0566C36.0913 8.56633 36.23 8.289 36.4726 8.055C36.724 7.821 37.088 7.704 37.5646 7.704C38.024 7.704 38.3793 7.81667 38.6306 8.042C38.8906 8.25867 39.0206 8.536 39.0206 8.874C39.0206 9.108 38.9643 9.29867 38.8516 9.446C38.7476 9.58467 38.6003 9.72767 38.4096 9.875C38.3923 9.89233 38.3403 9.93567 38.2536 10.005C38.1756 10.0657 38.1236 10.1307 38.0976 10.2H37.0186ZM45.173 18.091C44.5836 18.091 44.0766 17.9393 43.652 17.636C43.2273 17.3327 42.9023 16.9123 42.677 16.375C42.4603 15.8377 42.352 15.2267 42.352 14.542C42.352 13.8487 42.4646 13.2333 42.69 12.696C42.9153 12.1587 43.2403 11.7383 43.665 11.435C44.0983 11.123 44.614 10.967 45.212 10.967C45.81 10.967 46.2866 11.1057 46.642 11.383C46.9973 11.6603 47.266 11.981 47.448 12.345H47.539V11.149H48.891V18H47.539V16.674H47.448C47.2573 17.0553 46.98 17.389 46.616 17.675C46.252 17.9523 45.771 18.091 45.173 18.091ZM45.628 16.973C46.2433 16.973 46.7113 16.739 47.032 16.271C47.3613 15.7943 47.526 15.2137 47.526 14.529C47.526 13.8443 47.3613 13.268 47.032 12.8C46.7113 12.332 46.2433 12.098 45.628 12.098C45.004 12.098 44.5316 12.332 44.211 12.8C43.8903 13.268 43.73 13.84 43.73 14.516C43.73 15.2093 43.886 15.7943 44.198 16.271C44.5186 16.739 44.9953 16.973 45.628 16.973Z" fill="#F40000"/>
</svg>
