<svg width="495" height="129" viewBox="0 0 495 129" fill="none" xmlns="http://www.w3.org/2000/svg">
<path d="M494.989 0H0V4.5374C0.827946 4.58181 1.61038 5.03148 2.18387 5.79245C2.75736 6.55342 3.07754 7.56685 3.07754 8.62105C3.07754 9.67525 2.75736 10.6887 2.18387 11.4497C1.61038 12.2106 0.827946 12.6603 0 12.7047V17.0606C0.827946 17.105 1.61038 17.5547 2.18387 18.3157C2.75736 19.0766 3.07754 20.0901 3.07754 21.1443C3.07754 22.1985 2.75736 23.2119 2.18387 23.9729C1.61038 24.7338 0.827946 25.1835 0 25.2279V29.5838C0.827946 29.6282 1.61038 30.0779 2.18387 30.8389C2.75736 31.5999 3.07754 32.6133 3.07754 33.6675C3.07754 34.7217 2.75736 35.7351 2.18387 36.4961C1.61038 37.2571 0.827946 37.7067 0 37.7511V42.107C0.785271 42.219 1.51058 42.6951 2.03731 43.4444C2.56403 44.1937 2.85522 45.1637 2.85522 46.1689C2.85522 47.1741 2.56403 48.1441 2.03731 48.8934C1.51058 49.6428 0.785271 50.1189 0 50.2308V54.5867C0.827946 54.6311 1.61038 55.0808 2.18387 55.8418C2.75736 56.6027 3.07754 57.6162 3.07754 58.6704C3.07754 59.7246 2.75736 60.738 2.18387 61.499C1.61038 62.2599 0.827946 62.7096 0 62.754V67.1099C0.827946 67.1543 1.61038 67.604 2.18387 68.365C2.75736 69.1259 3.07754 70.1394 3.07754 71.1936C3.07754 72.2478 2.75736 73.2612 2.18387 74.0222C1.61038 74.7832 0.827946 75.2328 0 75.2772V79.6331C0.827946 79.6776 1.61038 80.1272 2.18387 80.8882C2.75736 81.6492 3.07754 82.6626 3.07754 83.7168C3.07754 84.771 2.75736 85.7844 2.18387 86.5454C1.61038 87.3064 0.827946 87.756 0 87.8004V92.1563C0.827946 92.2008 1.61038 92.6504 2.18387 93.4114C2.75736 94.1724 3.07754 95.1858 3.07754 96.24C3.07754 97.2942 2.75736 98.3076 2.18387 99.0686C1.61038 99.8296 0.827946 100.279 0 100.324V104.68C0.827946 104.724 1.61038 105.174 2.18387 105.935C2.75736 106.696 3.07754 107.709 3.07754 108.763C3.07754 109.817 2.75736 110.831 2.18387 111.592C1.61038 112.353 0.827946 112.802 0 112.847V117.203C0.827946 117.247 1.61038 117.697 2.18387 118.458C2.75736 119.219 3.07754 120.232 3.07754 121.286C3.07754 122.341 2.75736 123.354 2.18387 124.115C1.61038 124.876 0.827946 125.326 0 125.37V129H495L494.989 0Z" fill="#F4F4F4"/>
</svg>
