<svg width="91" height="37" viewBox="0 0 91 37" fill="none" xmlns="http://www.w3.org/2000/svg">
<path d="M0.209969 3.5202C0.238273 3.52143 0.266536 3.51691 0.293048 3.50693C0.319559 3.49694 0.34376 3.48168 0.364214 3.46208C0.384669 3.44248 0.400951 3.41893 0.412058 3.39287C0.423165 3.36681 0.428867 3.33877 0.428841 3.31044C0.428841 3.28169 0.423169 3.25323 0.412169 3.22667C0.401169 3.20011 0.385068 3.17599 0.364743 3.15566C0.344418 3.13534 0.320272 3.11922 0.293716 3.10822C0.26716 3.09722 0.238713 3.09155 0.209969 3.09155C0.181638 3.09153 0.153593 3.09724 0.12753 3.10835C0.101468 3.11946 0.0779138 3.13572 0.0583117 3.15618C0.0387095 3.17663 0.0234627 3.20085 0.0134741 3.22736C0.00348559 3.25387 -0.00103356 3.28213 0.000198222 3.31044C0.000198222 3.36607 0.0223138 3.41942 0.0616515 3.45876C0.100989 3.49809 0.154337 3.5202 0.209969 3.5202Z" fill="#F40000"/>
<path d="M11.2633 4.28658C11.4585 4.28657 11.6493 4.22857 11.8115 4.11993C11.9736 4.01129 12.0999 3.85692 12.1741 3.67641C12.2484 3.4959 12.2674 3.29739 12.2286 3.10608C12.1899 2.91477 12.0952 2.73929 11.9565 2.60191C11.8178 2.46453 11.6415 2.37145 11.4498 2.33448C11.2582 2.29751 11.0598 2.31832 10.88 2.39427C10.7002 2.47022 10.547 2.59788 10.4399 2.76105C10.3328 2.92423 10.2766 3.11555 10.2784 3.31074C10.2784 3.43966 10.3039 3.5673 10.3535 3.68629C10.4031 3.80528 10.4758 3.91327 10.5674 4.004C10.659 4.09474 10.7676 4.16643 10.8871 4.21493C11.0065 4.26343 11.1344 4.28779 11.2633 4.28658Z" fill="#F40000"/>
<path d="M22.3079 5.11652C22.6686 5.11652 23.0213 5.00954 23.3213 4.80912C23.6212 4.60869 23.855 4.32382 23.9931 3.99053C24.1311 3.65723 24.1672 3.29049 24.0969 2.93666C24.0265 2.58284 23.8528 2.25784 23.5977 2.00274C23.3426 1.74765 23.0176 1.57393 22.6638 1.50355C22.3099 1.43317 21.9432 1.4693 21.6099 1.60735C21.2766 1.74541 20.9917 1.97919 20.7913 2.27915C20.5909 2.57911 20.4839 2.93176 20.4839 3.29251C20.4839 3.77627 20.6761 4.24021 21.0181 4.58228C21.3602 4.92435 21.8241 5.11652 22.3079 5.11652Z" fill="#F40000"/>
<path d="M33.361 5.81875C34.7462 5.81875 35.869 4.69588 35.869 3.31074C35.869 1.92561 34.7462 0.802734 33.361 0.802734C31.9759 0.802734 30.853 1.92561 30.853 3.31074C30.853 4.69588 31.9759 5.81875 33.361 5.81875Z" fill="#F40000"/>
<path d="M44.4056 6.37499C45.0117 6.37499 45.6042 6.19528 46.1081 5.85856C46.612 5.52185 47.0048 5.04327 47.2367 4.48334C47.4686 3.9234 47.5293 3.30727 47.4111 2.71284C47.2928 2.11842 47.001 1.57241 46.5724 1.14386C46.1439 0.715303 45.5979 0.423458 45.0035 0.30522C44.409 0.186982 43.7929 0.247664 43.2329 0.479595C42.673 0.711527 42.1944 1.10429 41.8577 1.60822C41.521 2.11214 41.3413 2.7046 41.3413 3.31067C41.3413 4.12338 41.6641 4.90281 42.2388 5.47748C42.8135 6.05215 43.5929 6.37499 44.4056 6.37499Z" fill="#F40000"/>
<path d="M55.459 6.62114C56.1138 6.62114 56.7538 6.42698 57.2983 6.06321C57.8427 5.69944 58.267 5.1824 58.5176 4.57747C58.7682 3.97255 58.8337 3.3069 58.706 2.66471C58.5783 2.02252 58.2629 1.43264 57.7999 0.969645C57.337 0.506653 56.7471 0.191351 56.1049 0.0636119C55.4627 -0.0641272 54.797 0.00143822 54.1921 0.252007C53.5872 0.502577 53.0702 0.926898 52.7064 1.47132C52.3426 2.01574 52.1484 2.65581 52.1484 3.31058C52.1508 4.18785 52.5004 5.02851 53.1208 5.64884C53.7411 6.26917 54.5817 6.61874 55.459 6.62114Z" fill="#F40000"/>
<path d="M66.5129 6.43871C68.2406 6.43871 69.6411 5.03818 69.6411 3.31054C69.6411 1.5829 68.2406 0.182373 66.5129 0.182373C64.7853 0.182373 63.3848 1.5829 63.3848 3.31054C63.3848 5.03818 64.7853 6.43871 66.5129 6.43871Z" fill="#F40000"/>
<path d="M77.5567 5.88246C78.9771 5.88246 80.1285 4.73101 80.1285 3.31062C80.1285 1.89022 78.9771 0.73877 77.5567 0.73877C76.1363 0.73877 74.9849 1.89022 74.9849 3.31062C74.9849 4.73101 76.1363 5.88246 77.5567 5.88246Z" fill="#F40000"/>
<path d="M88.6018 5.17999C88.9626 5.17999 89.3152 5.07302 89.6152 4.87259C89.9152 4.67217 90.149 4.3873 90.287 4.054C90.4251 3.72071 90.4612 3.35396 90.3908 3.00014C90.3204 2.64632 90.1467 2.32131 89.8916 2.06622C89.6365 1.81113 89.3115 1.63741 88.9577 1.56703C88.6039 1.49665 88.2371 1.53278 87.9038 1.67083C87.5705 1.80888 87.2857 2.04267 87.0852 2.34263C86.8848 2.64258 86.7778 2.99523 86.7778 3.35599C86.7894 3.8361 86.9853 4.29335 87.3249 4.63294C87.6645 4.97253 88.1217 5.16842 88.6018 5.17999Z" fill="#F40000"/>
<path d="M0.219557 14.383C0.234835 14.383 0.247219 14.3706 0.247219 14.3553C0.247219 14.34 0.234835 14.3276 0.219557 14.3276C0.204279 14.3276 0.191895 14.34 0.191895 14.3553C0.191895 14.3706 0.204279 14.383 0.219557 14.383Z" fill="#F40000"/>
<path d="M11.2635 14.8746C11.5506 14.8746 11.7833 14.6419 11.7833 14.3548C11.7833 14.0677 11.5506 13.835 11.2635 13.835C10.9764 13.835 10.7437 14.0677 10.7437 14.3548C10.7437 14.6419 10.9764 14.8746 11.2635 14.8746Z" fill="#F40000"/>
<path d="M22.3081 15.5862C22.5519 15.588 22.7909 15.5173 22.9946 15.3831C23.1982 15.2489 23.3574 15.0573 23.452 14.8325C23.5466 14.6077 23.5723 14.3598 23.5258 14.1204C23.4793 13.881 23.3628 13.6607 23.191 13.4876C23.0192 13.3145 22.7998 13.1964 22.5608 13.1481C22.3217 13.0999 22.0737 13.1237 21.8482 13.2166C21.6226 13.3095 21.4298 13.4673 21.2941 13.67C21.1584 13.8727 21.086 14.1111 21.086 14.3549C21.0848 14.5162 21.1155 14.6761 21.1764 14.8254C21.2372 14.9747 21.3271 15.1105 21.4407 15.225C21.5543 15.3394 21.6894 15.4303 21.8383 15.4923C21.9871 15.5543 22.1468 15.5862 22.3081 15.5862Z" fill="#F40000"/>
<path d="M33.3611 16.1607C33.7219 16.1607 34.0745 16.0537 34.3745 15.8533C34.6744 15.6529 34.9082 15.368 35.0463 15.0347C35.1843 14.7014 35.2204 14.3347 35.1501 13.9809C35.0797 13.627 34.906 13.302 34.6509 13.0469C34.3958 12.7918 34.0708 12.6181 33.7169 12.5477C33.3631 12.4774 32.9964 12.5135 32.6631 12.6515C32.3298 12.7896 32.0449 13.0234 31.8445 13.3233C31.6441 13.6233 31.5371 13.9759 31.5371 14.3367C31.5371 14.8205 31.7293 15.2844 32.0713 15.6265C32.4134 15.9685 32.8774 16.1607 33.3611 16.1607Z" fill="#F40000"/>
<path d="M44.4053 16.5986C44.8494 16.6004 45.2841 16.4704 45.6542 16.225C46.0244 15.9795 46.3134 15.6298 46.4846 15.22C46.6558 14.8102 46.7015 14.3588 46.616 13.923C46.5304 13.4872 46.3175 13.0866 46.0041 12.7719C45.6907 12.4572 45.2909 12.2427 44.8555 12.1554C44.4201 12.068 43.9685 12.1119 43.558 12.2815C43.1475 12.451 42.7966 12.7386 42.5497 13.1077C42.3027 13.4768 42.1709 13.911 42.1709 14.3551C42.1709 14.9485 42.406 15.5178 42.8248 15.9383C43.2436 16.3588 43.8119 16.5962 44.4053 16.5986Z" fill="#F40000"/>
<path d="M55.4593 16.7806C55.9319 16.7806 56.3938 16.6405 56.7868 16.3779C57.1797 16.1154 57.486 15.7422 57.6668 15.3056C57.8477 14.8689 57.895 14.3885 57.8028 13.925C57.7106 13.4615 57.483 13.0357 57.1489 12.7016C56.8147 12.3674 56.3889 12.1398 55.9254 12.0476C55.4619 11.9554 54.9815 12.0027 54.5449 12.1836C54.1083 12.3644 53.7351 12.6707 53.4725 13.0637C53.21 13.4566 53.0698 13.9186 53.0698 14.3912C53.0698 15.0249 53.3216 15.6326 53.7697 16.0808C54.2178 16.5289 54.8255 16.7806 55.4593 16.7806Z" fill="#F40000"/>
<path d="M66.4669 16.626C66.9164 16.6278 67.3563 16.4961 67.731 16.2477C68.1056 15.9993 68.3981 15.6452 68.5714 15.2305C68.7447 14.8157 68.7909 14.3588 68.7044 13.9177C68.6178 13.4766 68.4022 13.0711 68.085 12.7526C67.7678 12.4341 67.3631 12.2169 66.9224 12.1285C66.4816 12.0402 66.0246 12.0846 65.6091 12.2562C65.1936 12.4278 64.8384 12.7189 64.5885 13.0925C64.3385 13.4662 64.2051 13.9056 64.2051 14.3551C64.2039 14.6529 64.2615 14.948 64.3746 15.2234C64.4878 15.4989 64.6542 15.7493 64.8643 15.9603C65.0745 16.1713 65.3242 16.3387 65.5992 16.453C65.8742 16.5672 66.1691 16.626 66.4669 16.626Z" fill="#F40000"/>
<path d="M77.5566 16.2246C77.9153 16.2156 78.2634 16.1011 78.5573 15.8953C78.8512 15.6895 79.0779 15.4016 79.2089 15.0676C79.34 14.7336 79.3697 14.3684 79.2942 14.0176C79.2188 13.6668 79.0416 13.3461 78.7848 13.0956C78.528 12.845 78.203 12.6758 77.8504 12.609C77.4979 12.5422 77.1335 12.5809 76.8029 12.7202C76.4722 12.8595 76.19 13.0932 75.9916 13.3921C75.7931 13.691 75.6871 14.0418 75.687 14.4006C75.6989 14.8885 75.9011 15.3524 76.2505 15.6932C76.5998 16.034 77.0686 16.2247 77.5566 16.2246Z" fill="#F40000"/>
<path d="M88.6014 15.6409C88.8557 15.6409 89.1043 15.5655 89.3158 15.4242C89.5272 15.2829 89.6921 15.0821 89.7894 14.8471C89.8867 14.6121 89.9122 14.3536 89.8626 14.1041C89.813 13.8547 89.6905 13.6256 89.5107 13.4457C89.3308 13.2659 89.1017 13.1434 88.8522 13.0938C88.6028 13.0442 88.3442 13.0696 88.1093 13.167C87.8743 13.2643 87.6735 13.4291 87.5322 13.6406C87.3909 13.8521 87.3154 14.1007 87.3154 14.355C87.3154 14.6961 87.4509 15.0231 87.6921 15.2643C87.9332 15.5055 88.2603 15.6409 88.6014 15.6409Z" fill="#F40000"/>
<path d="M11.2637 25.4994C11.2872 25.4973 11.3092 25.4871 11.3259 25.4704C11.3425 25.4537 11.3528 25.4317 11.3549 25.4082C11.3549 25.3962 11.3525 25.3843 11.3479 25.3733C11.3433 25.3622 11.3366 25.3522 11.3281 25.3437C11.3197 25.3352 11.3096 25.3285 11.2986 25.3239C11.2875 25.3193 11.2756 25.317 11.2637 25.317C11.2513 25.3155 11.2388 25.3169 11.2271 25.3209C11.2154 25.325 11.2047 25.3317 11.1959 25.3404C11.1871 25.3492 11.1805 25.3599 11.1764 25.3716C11.1723 25.3833 11.171 25.3959 11.1724 25.4082C11.1724 25.4202 11.1748 25.432 11.1794 25.4431C11.184 25.4542 11.1907 25.4642 11.1992 25.4727C11.2076 25.4811 11.2177 25.4879 11.2288 25.4924C11.2398 25.497 11.2517 25.4994 11.2637 25.4994Z" fill="#F40000"/>
<path d="M22.3172 25.9284C22.6043 25.9284 22.837 25.6956 22.837 25.4085C22.837 25.1214 22.6043 24.8887 22.3172 24.8887C22.0301 24.8887 21.7974 25.1214 21.7974 25.4085C21.7974 25.6956 22.0301 25.9284 22.3172 25.9284Z" fill="#F40000"/>
<path d="M33.3614 26.4206C33.9205 26.4206 34.3738 25.9674 34.3738 25.4083C34.3738 24.8492 33.9205 24.396 33.3614 24.396C32.8023 24.396 32.3491 24.8492 32.3491 25.4083C32.3491 25.9674 32.8023 26.4206 33.3614 26.4206Z" fill="#F40000"/>
<path d="M44.4059 26.7584C44.6729 26.7584 44.9338 26.6792 45.1558 26.5309C45.3778 26.3826 45.5508 26.1718 45.6529 25.9251C45.7551 25.6785 45.7818 25.4071 45.7298 25.1453C45.6777 24.8834 45.5491 24.6429 45.3603 24.4542C45.1716 24.2654 44.9311 24.1369 44.6692 24.0848C44.4074 24.0327 44.136 24.0594 43.8894 24.1616C43.6428 24.2637 43.432 24.4367 43.2837 24.6587C43.1353 24.8807 43.0562 25.1417 43.0562 25.4086C43.0562 25.7666 43.1984 26.1099 43.4515 26.363C43.7046 26.6162 44.0479 26.7584 44.4059 26.7584Z" fill="#F40000"/>
<path d="M55.4595 26.8766C55.7499 26.8766 56.0338 26.7905 56.2753 26.6291C56.5167 26.4678 56.705 26.2385 56.8161 25.9702C56.9272 25.7019 56.9563 25.4066 56.8996 25.1218C56.843 24.837 56.7031 24.5754 56.4978 24.37C56.2925 24.1647 56.0308 24.0248 55.746 23.9682C55.4612 23.9115 55.1659 23.9406 54.8976 24.0517C54.6293 24.1628 54.4 24.351 54.2387 24.5925C54.0773 24.834 53.9912 25.1179 53.9912 25.4083C53.9912 25.7977 54.1459 26.1712 54.4213 26.4465C54.6966 26.7219 55.0701 26.8766 55.4595 26.8766Z" fill="#F40000"/>
<path d="M66.4665 26.8131C66.7389 26.8131 67.0051 26.7323 67.2316 26.581C67.458 26.4297 67.6345 26.2146 67.7388 25.963C67.843 25.7113 67.8703 25.4344 67.8172 25.1673C67.764 24.9002 67.6328 24.6548 67.4403 24.4622C67.2477 24.2696 67.0023 24.1384 66.7352 24.0853C66.468 24.0322 66.1911 24.0594 65.9395 24.1637C65.6879 24.2679 65.4728 24.4444 65.3214 24.6709C65.1701 24.8973 65.0894 25.1636 65.0894 25.436C65.0894 25.8012 65.2345 26.1515 65.4927 26.4097C65.751 26.668 66.1013 26.8131 66.4665 26.8131Z" fill="#F40000"/>
<path d="M77.5571 26.4844C78.1515 26.4844 78.6333 26.0025 78.6333 25.4082C78.6333 24.8138 78.1515 24.332 77.5571 24.332C76.9628 24.332 76.481 24.8138 76.481 25.4082C76.481 26.0025 76.9628 26.4844 77.5571 26.4844Z" fill="#F40000"/>
<path d="M88.6105 25.9921C88.9329 25.9921 89.1942 25.7307 89.1942 25.4084C89.1942 25.086 88.9329 24.8247 88.6105 24.8247C88.2882 24.8247 88.0269 25.086 88.0269 25.4084C88.0269 25.7307 88.2882 25.9921 88.6105 25.9921Z" fill="#F40000"/>
<path d="M22.3177 36.4806C22.333 36.4806 22.3454 36.4682 22.3454 36.453C22.3454 36.4377 22.333 36.4253 22.3177 36.4253C22.3024 36.4253 22.29 36.4377 22.29 36.453C22.29 36.4682 22.3024 36.4806 22.3177 36.4806Z" fill="#F40000"/>
<path d="M33.361 36.699C33.4097 36.699 33.4573 36.6846 33.4978 36.6575C33.5383 36.6305 33.5698 36.592 33.5885 36.547C33.6071 36.502 33.612 36.4525 33.6025 36.4047C33.593 36.357 33.5696 36.3131 33.5351 36.2787C33.5007 36.2442 33.4568 36.2208 33.409 36.2113C33.3613 36.2018 33.3118 36.2067 33.2668 36.2253C33.2218 36.2439 33.1833 36.2755 33.1562 36.316C33.1292 36.3565 33.1147 36.4041 33.1147 36.4528C33.1147 36.5181 33.1407 36.5807 33.1869 36.6269C33.2331 36.6731 33.2957 36.699 33.361 36.699Z" fill="#F40000"/>
<path d="M44.4053 36.918C44.5287 36.918 44.647 36.869 44.7342 36.7818C44.8214 36.6946 44.8704 36.5763 44.8704 36.4529C44.8705 36.3923 44.8584 36.3322 44.8349 36.2763C44.8114 36.2204 44.777 36.1697 44.7337 36.1272C44.6904 36.0847 44.639 36.0513 44.5826 36.029C44.5262 36.0066 44.466 35.9957 44.4053 35.9969C44.2844 35.9969 44.1684 36.045 44.0829 36.1305C43.9974 36.216 43.9493 36.332 43.9493 36.4529C43.9481 36.5136 43.959 36.5738 43.9814 36.6302C44.0037 36.6866 44.0371 36.738 44.0796 36.7813C44.1221 36.8246 44.1728 36.859 44.2287 36.8825C44.2846 36.906 44.3447 36.918 44.4053 36.918Z" fill="#F40000"/>
<path d="M55.4598 36.9999C55.762 36.9999 56.007 36.7549 56.007 36.4527C56.007 36.1505 55.762 35.9055 55.4598 35.9055C55.1576 35.9055 54.9126 36.1505 54.9126 36.4527C54.9126 36.7549 55.1576 36.9999 55.4598 36.9999Z" fill="#F40000"/>
<path d="M66.513 36.9452C66.785 36.9452 67.0055 36.7247 67.0055 36.4527C67.0055 36.1807 66.785 35.9602 66.513 35.9602C66.241 35.9602 66.0205 36.1807 66.0205 36.4527C66.0205 36.7247 66.241 36.9452 66.513 36.9452Z" fill="#F40000"/>
<path d="M77.5568 36.699C77.6055 36.699 77.6531 36.6846 77.6936 36.6575C77.7341 36.6305 77.7656 36.592 77.7843 36.547C77.8029 36.502 77.8078 36.4525 77.7983 36.4047C77.7888 36.357 77.7653 36.3131 77.7309 36.2787C77.6965 36.2442 77.6526 36.2208 77.6048 36.2113C77.557 36.2018 77.5075 36.2067 77.4625 36.2253C77.4175 36.2439 77.3791 36.2755 77.352 36.316C77.325 36.3565 77.3105 36.4041 77.3105 36.4528C77.3105 36.5181 77.3365 36.5807 77.3827 36.6269C77.4288 36.6731 77.4915 36.699 77.5568 36.699Z" fill="#F40000"/>
<path d="M88.6112 36.4806C88.6264 36.4806 88.6388 36.4682 88.6388 36.453C88.6388 36.4377 88.6264 36.4253 88.6112 36.4253C88.5959 36.4253 88.5835 36.4377 88.5835 36.453C88.5835 36.4682 88.5959 36.4806 88.6112 36.4806Z" fill="#F40000"/>
</svg>
