<svg width="31" height="26" viewBox="0 0 31 26" fill="none" xmlns="http://www.w3.org/2000/svg">
<path d="M0.000142574 1.56364C0.000142574 1.1499 0.16135 0.753113 0.448295 0.460556C0.735241 0.167999 1.12442 0.00363994 1.53022 0.00363994H28.8075C29.0167 -0.0109592 29.2267 0.0184591 29.4243 0.0900633C29.6219 0.161667 29.803 0.273929 29.9563 0.41988C30.1096 0.565831 30.2318 0.742352 30.3153 0.938483C30.3989 1.13461 30.442 1.34617 30.442 1.56C30.442 1.77384 30.3989 1.98539 30.3153 2.18152C30.2318 2.37765 30.1096 2.55417 29.9563 2.70012C29.803 2.84607 29.6219 2.95834 29.4243 3.02994C29.2267 3.10154 29.0167 3.13096 28.8075 3.11636H1.52615C1.12228 3.11527 0.735226 2.95142 0.449366 2.66056C0.163505 2.36969 0.00202584 1.9754 0.000142574 1.56364ZM28.8075 11.4509H1.52615C1.13933 11.4779 0.776987 11.6536 0.512352 11.9425C0.247718 12.2314 0.100528 12.612 0.100528 13.0073C0.100528 13.4026 0.247718 13.7831 0.512352 14.072C0.776987 14.361 1.13933 14.5367 1.52615 14.5636H28.8075C29.1943 14.5367 29.5566 14.361 29.8213 14.072C30.0859 13.7831 30.2331 13.4026 30.2331 13.0073C30.2331 12.612 30.0859 12.2314 29.8213 11.9425C29.5566 11.6536 29.1943 11.4779 28.8075 11.4509ZM28.8075 22.8909H1.52615C1.3169 22.8763 1.10695 22.9057 0.90932 22.9773C0.711695 23.0489 0.530619 23.1612 0.377336 23.3072C0.224053 23.4531 0.101839 23.6296 0.0182794 23.8258C-0.06528 24.0219 -0.108398 24.2334 -0.108398 24.4473C-0.108398 24.6611 -0.06528 24.8727 0.0182794 25.0688C0.101839 25.2649 0.224053 25.4415 0.377336 25.5874C0.530619 25.7334 0.711695 25.8456 0.90932 25.9172C1.10695 25.9888 1.3169 26.0182 1.52615 26.0036H28.8075C29.0167 26.0182 29.2267 25.9888 29.4243 25.9172C29.6219 25.8456 29.803 25.7334 29.9563 25.5874C30.1096 25.4415 30.2318 25.2649 30.3153 25.0688C30.3989 24.8727 30.442 24.6611 30.442 24.4473C30.442 24.2334 30.3989 24.0219 30.3153 23.8258C30.2318 23.6296 30.1096 23.4531 29.9563 23.3072C29.803 23.1612 29.6219 23.0489 29.4243 22.9773C29.2267 22.9057 29.0167 22.8763 28.8075 22.8909Z" fill="#F40000"/>
</svg>
