<svg width="31" height="31" viewBox="0 0 31 31" fill="none" xmlns="http://www.w3.org/2000/svg">
<g filter="url(#filter0_d_1403_781)">
<path d="M8.31016 12.8789C9.40391 13.9727 10.732 14.5195 12.2945 14.5195C13.857 14.5195 15.1852 13.9727 16.2789 12.8789C17.3727 11.7852 17.9195 10.457 17.9195 8.89453C17.9195 7.33203 17.3727 6.00391 16.2789 4.91016C15.1852 3.81641 13.857 3.26953 12.2945 3.26953C10.732 3.26953 9.40391 3.81641 8.31016 4.91016C7.21641 6.00391 6.66953 7.33203 6.66953 8.89453C6.66953 10.457 7.21641 11.7852 8.31016 12.8789ZM19.7945 14.5195L26.0055 20.7305L24.1305 22.6055L17.9195 16.3945V15.3984L17.568 15.0469C16.0836 16.3359 14.3258 16.9805 12.2945 16.9805C10.0289 16.9805 8.09531 16.1992 6.49375 14.6367C4.93125 13.0742 4.15 11.1602 4.15 8.89453C4.15 6.62891 4.93125 4.71484 6.49375 3.15234C8.09531 1.55078 10.0289 0.75 12.2945 0.75C14.5602 0.75 16.4742 1.55078 18.0367 3.15234C19.5992 4.71484 20.3805 6.62891 20.3805 8.89453C20.3805 9.71484 20.1852 10.6523 19.7945 11.707C19.4039 12.7227 18.9547 13.543 18.4469 14.168L18.7984 14.5195H19.7945Z" fill="#F40000"/>
</g>
<defs>
<filter id="filter0_d_1403_781" x="0.149902" y="0.75" width="29.8555" height="29.8555" filterUnits="userSpaceOnUse" color-interpolation-filters="sRGB">
<feFlood flood-opacity="0" result="BackgroundImageFix"/>
<feColorMatrix in="SourceAlpha" type="matrix" values="0 0 0 0 0 0 0 0 0 0 0 0 0 0 0 0 0 0 127 0" result="hardAlpha"/>
<feOffset dy="4"/>
<feGaussianBlur stdDeviation="2"/>
<feComposite in2="hardAlpha" operator="out"/>
<feColorMatrix type="matrix" values="0 0 0 0 0 0 0 0 0 0 0 0 0 0 0 0 0 0 0.25 0"/>
<feBlend mode="normal" in2="BackgroundImageFix" result="effect1_dropShadow_1403_781"/>
<feBlend mode="normal" in="SourceGraphic" in2="effect1_dropShadow_1403_781" result="shape"/>
</filter>
</defs>
</svg>
