<svg xmlns="http://www.w3.org/2000/svg" id="Group_3" width="21.487" height="23.63" data-name="Group 3" viewBox="0 0 21.487 23.63">
    <defs>
        <style>
            .cls-1{fill:#5b5b5b}
        </style>
    </defs>
    <path id="Path_3" d="M39.515 25.126a4.723 4.723 0 1 0-4.723-4.726 4.728 4.728 0 0 0 4.723 4.726zm0-8.2a3.481 3.481 0 1 1-3.481 3.474 3.485 3.485 0 0 1 3.481-3.477z" class="cls-1" data-name="Path 3" transform="translate(-28.771 -15.681)"/>
    <path id="Path_4" d="M36.88 61.464c-.654-6.059-5.268-10.629-10.733-10.629S16.068 55.4 15.414 61.464a1.88 1.88 0 0 0 .471 1.455 1.9 1.9 0 0 0 1.412.63H35a1.9 1.9 0 0 0 1.412-.63 1.878 1.878 0 0 0 .468-1.455zm-1.4.624a.656.656 0 0 1-.488.218H17.3a.656.656 0 0 1-.487-.218.627.627 0 0 1-.161-.492c.586-5.427 4.669-9.52 9.5-9.52s8.912 4.093 9.5 9.52a.626.626 0 0 1-.167.492z" class="cls-1" data-name="Path 4" transform="translate(-15.404 -39.918)"/>
</svg>
